<svg width="208" height="96" viewBox="0 0 208 96" fill="none" xmlns="http://www.w3.org/2000/svg">
<path d="M98.882 36.0002H96.1078C95.5497 36.0002 95.5497 36.0586 95.5497 36.6167V49.9307C95.5497 53.4954 94.1813 55.6332 91.1175 55.6332C88.055 55.6332 86.6865 53.4755 86.6865 49.9307V36.6167C86.6865 36.0586 86.6865 36.0002 86.1086 36.0002H83.4687C82.8895 36.0002 82.8125 36.0586 82.8125 36.6167V50.1234C82.8125 56.4237 86.1459 59.352 91.1362 59.352C96.1265 59.352 99.46 56.4237 99.46 50.1234V36.6167C99.4413 36.0772 99.4413 36.0002 98.8809 36.0002H98.882ZM67.0908 36.0002H60.5593C60.0001 36.0002 60.0001 36.0586 60.0001 36.6167V58.1763C60.0001 58.7355 60.0001 58.7927 60.5593 58.7927H63.1981C63.7188 58.7927 63.7761 58.7344 63.7761 58.1763V49.8922H67.071C71.9655 49.8922 75.2978 47.9657 75.2978 42.917C75.3189 37.8695 71.9842 36.0002 67.0897 36.0002H67.0908ZM67.3594 46.3077H63.7971V39.5847H67.3617C69.7506 39.5847 71.5417 40.5293 71.5417 42.9182C71.5417 45.3071 69.7319 46.3089 67.3617 46.3089L67.3594 46.3077ZM147.665 55.2281H139.053V49.0247H146.914C147.395 49.0247 147.473 48.9663 147.473 48.4082V46.0578C147.473 45.4985 147.414 45.4413 146.914 45.4413H139.053V39.6034H147.569C148.128 39.6034 148.186 39.545 148.186 38.9869V36.6354C148.186 36.0772 148.128 36.0189 147.569 36.0189H135.932C135.354 36.0189 135.277 36.0772 135.277 36.6354V58.1961C135.277 58.7542 135.335 58.8126 135.931 58.8126H147.686C148.264 58.8126 148.34 58.7542 148.34 58.1961V55.7488C148.321 55.2865 148.244 55.2281 147.666 55.2281H147.665ZM125.7 42.7629C125.7 37.8695 122.367 36.0189 117.474 36.0189H110.885C110.403 36.0189 110.403 36.0772 110.403 36.6354V58.1961C110.403 58.7542 110.403 58.8126 110.885 58.8126H113.601C114.179 58.8126 114.179 58.7542 114.179 58.1961V49.6213H116.722L121.231 58.4658C121.385 58.7542 121.596 58.8313 121.847 58.8313H125.007C125.392 58.8313 125.489 58.5429 125.334 58.2732L120.672 49.1788C123.524 48.5425 125.7 46.4817 125.7 42.7629ZM117.743 46.3077H114.179V39.5847H117.743C120.132 39.5847 121.923 40.5293 121.923 42.9182C121.923 45.3071 120.114 46.3089 117.743 46.3089V46.3077Z" fill="#9CA3AF"/>
</svg>
