<svg width="208" height="96" viewBox="0 0 208 96" fill="none" xmlns="http://www.w3.org/2000/svg">
<path d="M28.4295 56.5521V33.0187H32.1783C34.3529 33.0187 35.9437 33.1571 36.9494 33.4339C38.3783 33.8075 39.5141 34.5007 40.3579 35.5135C41.2018 36.5275 41.6237 37.7214 41.6237 39.0977C41.6237 39.9934 41.4312 40.8074 41.0488 41.5371C40.6651 42.268 40.0405 42.9524 39.1763 43.5928C40.6243 44.2646 41.6836 45.105 42.3528 46.1127C43.0233 47.1204 43.3572 48.3118 43.3572 49.6881C43.3572 51.0116 43.0118 52.2155 42.3196 53.3038C41.6275 54.392 40.7352 55.2047 39.6415 55.7432C38.5492 56.2816 37.0399 56.5508 35.1139 56.5508H28.4295V56.5521ZM32.9686 37.2899V42.2492H33.9616C35.068 42.2492 35.8889 42.0202 36.4268 41.561C36.9635 41.1018 37.2311 40.4791 37.2311 39.689C37.2311 38.953 36.9762 38.3693 36.4663 37.9378C35.9565 37.5063 35.1815 37.2899 34.1401 37.2899H32.9686ZM32.9686 46.2498V52.281H34.1069C35.9922 52.281 37.263 52.047 37.9182 51.5764C38.5734 51.1072 38.9022 50.4241 38.9022 49.5296C38.9022 48.5156 38.5173 47.7167 37.7474 47.1305C36.9788 46.5442 35.7003 46.2498 33.9119 46.2498H32.9686Z" fill="#9CA3AF"/>
<path d="M45.5472 39.1472H49.9729V45.6602L56.0658 39.1472H61.4679L53.6146 47.6278L61.566 56.5525H55.6974L50.4381 50.4043L49.9729 50.9528V56.5525H45.5472V39.1472Z" fill="#9CA3AF"/>
<path d="M63.0753 39.1472H67.5978L72.1777 50.0684L77.2331 39.1472H81.7684L70.7233 62.9208H66.1523L69.7788 55.2541L63.0753 39.1472Z" fill="#9CA3AF"/>
<path d="M100.999 42.6645L97.3154 44.6648C96.6232 43.9502 95.94 43.4545 95.2632 43.1765C94.5863 42.8985 93.7947 42.7614 92.8859 42.7614C91.2314 42.7614 89.8917 43.2482 88.8694 44.2232C87.8458 45.197 87.3347 46.445 87.3347 47.9685C87.3347 49.4492 87.8267 50.6582 88.812 51.5942C89.7961 52.5315 91.0886 53.0007 92.6896 53.0007C94.6704 53.0007 96.2128 52.334 97.3154 50.9992L100.805 53.358C98.9138 55.7848 96.2447 56.9989 92.7979 56.9989C89.6967 56.9989 87.2671 56.0931 85.5106 54.2789C83.7541 52.4648 82.8771 50.3437 82.8771 47.9106C82.8771 46.2261 83.3042 44.6736 84.1582 43.2545C85.0122 41.8367 86.2028 40.7208 87.7324 39.9106C89.262 39.1004 90.9726 38.694 92.863 38.694C94.6144 38.694 96.186 39.0387 97.5805 39.7256C98.9737 40.4176 100.113 41.3964 100.999 42.6645Z" fill="#9CA3AF"/>
<path d="M104.645 56.5521V33.0187H108.394C110.568 33.0187 112.159 33.1571 113.165 33.4339C114.593 33.8075 115.73 34.5007 116.573 35.5135C117.417 36.5275 117.839 37.7214 117.839 39.0977C117.839 39.9934 117.647 40.8074 117.263 41.5371C116.881 42.268 116.257 42.9524 115.392 43.5928C116.84 44.2646 117.899 45.105 118.568 46.1127C119.239 47.1204 119.574 48.3118 119.574 49.6881C119.574 51.0116 119.229 52.2155 118.535 53.3038C117.843 54.392 116.951 55.2047 115.858 55.7432C114.766 56.2816 113.257 56.5508 111.332 56.5508H104.645V56.5521ZM109.184 37.2899V42.2492H110.176C111.282 42.2492 112.104 42.0202 112.642 41.561C113.179 41.1018 113.447 40.4791 113.447 39.689C113.447 38.953 113.192 38.3693 112.682 37.9378C112.172 37.5063 111.397 37.2899 110.356 37.2899H109.184ZM109.184 46.2498V52.281H110.322C112.208 52.281 113.478 52.047 114.134 51.5764C114.789 51.1072 115.118 50.4241 115.118 49.5296C115.118 48.5156 114.734 47.7167 113.964 47.1305C113.195 46.5442 111.914 46.2498 110.129 46.2498H109.184Z" fill="#9CA3AF"/>
<path d="M125.029 56.5525H122.68V39.1472H126.991V49.3702L136.02 39.1472H138.143V56.5525H133.831V46.5383L125.029 56.5525Z" fill="#9CA3AF"/>
<path d="M158.698 56.5525H154.192L149.779 45.5759L145.284 56.5525H140.794L148.315 39.1472H151.168L158.698 56.5525Z" fill="#9CA3AF"/>
<path d="M178.571 56.5525H174.065L169.651 45.5759L165.157 56.5525H160.667L168.19 39.1472H171.043L178.571 56.5525Z" fill="#9CA3AF"/>
</svg>
