<svg width="208" height="96" viewBox="0 0 208 96" fill="none" xmlns="http://www.w3.org/2000/svg">
<path d="M122.098 36.4368V55.1232C122.098 55.4192 121.875 55.6413 121.577 55.6413H117.745C117.448 55.6413 117.225 55.4192 117.225 55.1232V36.4368C117.225 36.1408 117.448 35.9188 117.745 35.9188H121.577C121.875 35.9188 122.098 36.1408 122.098 36.4368ZM152.006 35.9188H147.729C147.505 35.9188 147.319 36.0668 147.245 36.2888L143.86 47.3526L140.14 36.2888C140.065 36.0668 139.879 35.9558 139.656 35.9558H136.643C136.42 35.9558 136.234 36.1038 136.159 36.2888L132.439 47.3526L128.98 36.2888C128.905 36.0668 128.719 35.9188 128.496 35.9188H124.218C124.069 35.9188 123.883 35.9928 123.809 36.1408C123.697 36.2888 123.697 36.4368 123.735 36.5848L130.059 55.3082C130.133 55.5302 130.319 55.6413 130.542 55.6413H133.965C134.188 55.6413 134.374 55.4932 134.448 55.3082L138.131 44.3924L141.814 55.3082C141.888 55.5302 142.074 55.6413 142.297 55.6413H145.72C145.943 55.6413 146.129 55.4932 146.203 55.3082L152.527 36.5848C152.564 36.4368 152.564 36.2518 152.453 36.1408C152.341 35.9928 152.192 35.9188 152.006 35.9188ZM158.479 35.9188H154.648C154.35 35.9188 154.127 36.1408 154.127 36.4368V55.1232C154.127 55.4192 154.35 55.6413 154.648 55.6413H158.479C158.777 55.6413 159 55.4192 159 55.1232V36.4368C159 36.1408 158.74 35.9188 158.479 35.9188ZM115.03 55.0122C115.253 55.2712 115.067 55.6413 114.732 55.6413H110.008C109.822 55.6413 109.636 55.5672 109.524 55.4192L108.743 54.4572C107.106 55.4932 105.172 56.1223 103.126 56.1223C97.3971 56.1223 92.7471 51.4969 92.7471 45.7985C92.7471 40.1001 97.3971 35.4747 103.126 35.4747C108.855 35.4747 113.505 40.1001 113.505 45.7985C113.505 47.8337 112.909 49.7578 111.868 51.3859L115.03 55.0122ZM105.693 50.8309L103.647 48.3517C103.423 48.0927 103.609 47.6857 103.944 47.6857H108.259C108.483 47.0936 108.594 46.4276 108.594 45.7615C108.594 42.6903 106.288 40.0261 103.126 40.0261C99.9639 40.0261 97.6575 42.6903 97.6575 45.7615C97.6575 48.8327 99.9639 51.4599 103.126 51.4599C104.056 51.4969 104.911 51.2379 105.693 50.8309ZM80.9175 54.9012C81.0291 55.6783 80.7687 56.0113 80.5455 56.0113C80.2851 56.0113 79.9503 55.6783 79.5411 55.0862C79.132 54.4572 78.9832 53.7541 79.2063 53.4211C79.3179 53.1991 79.6155 53.0881 79.9503 53.1991C80.5827 53.4211 80.8431 54.4202 80.9175 54.9012ZM77.2348 56.6033C78.016 57.2694 78.2764 58.0834 77.8672 58.6385C77.644 58.9345 77.272 59.1195 76.7884 59.1195C76.342 59.1195 75.8956 58.9715 75.5608 58.6755C74.854 58.0464 74.6308 57.0104 75.1144 56.4553C75.3004 56.2333 75.598 56.1223 75.97 56.1223C76.3792 56.0853 76.8256 56.2703 77.2348 56.6033ZM75.8956 63.0418C79.318 63.0418 83.0379 64.2259 87.1671 67.8522C87.5763 68.2222 88.1343 67.7782 87.7623 67.2971C83.7075 62.2277 79.9875 61.2657 76.2676 60.4516C71.692 59.4525 69.3484 56.8993 67.7116 54.0871C67.3768 53.5321 67.228 53.6431 67.228 54.3462C67.1908 55.2342 67.2652 56.3813 67.4512 57.5284C67.2652 57.5284 67.0792 57.5284 66.8932 57.5284C60.3832 57.5284 55.0636 52.274 55.0636 45.7615C55.0636 39.249 60.346 33.9946 66.8932 33.9946C73.4032 33.9946 78.7228 39.249 78.7228 45.7615C78.7228 46.2055 78.6856 46.6866 78.6484 47.1306C77.7928 46.9826 76.0816 46.9456 74.8912 47.0566C74.4448 47.0936 74.5192 47.3156 74.854 47.3526C78.76 48.0557 81.4383 50.4609 82.0707 54.8272C82.0707 54.9382 82.2195 54.9752 82.2567 54.8642C83.8563 52.2 84.7863 49.0918 84.7863 45.7245C84.7491 35.9558 76.7512 28.0002 66.8932 28.0002C56.998 28.0002 49.0001 35.9558 49.0001 45.7985C49.0001 55.6413 56.998 63.5968 66.8932 63.5968C69.4972 63.5598 72.1012 63.0418 75.8956 63.0418Z" fill="#9CA3AF"/>
</svg>
