<svg width="208" height="96" viewBox="0 0 208 96" fill="none" xmlns="http://www.w3.org/2000/svg">
<path d="M45.511 32.3976H45.4537C33.7998 32.3976 30.062 36.1113 30.0157 47.6814C30.0646 59.5701 33.6556 63.195 45.3942 63.195C57.1915 63.195 60.7646 59.5701 60.8135 47.6784C60.7646 35.9687 57.1914 32.3976 45.511 32.3976ZM56.873 47.6499C56.8703 48.418 56.8393 49.1238 56.7945 49.8015L38.1249 54.3182C38.1249 54.3182 38.905 57.5413 41.4616 56.9217C42.2814 56.7249 50.4883 54.7496 56.2513 53.3609C55.0472 57.7355 51.9224 59.2265 45.4788 59.2265H45.3963C41.5488 59.2265 39.0588 58.696 37.3208 57.5102C34.934 55.8785 33.9538 53.0226 33.9307 47.6515C33.9656 39.0641 36.7522 36.3114 45.3963 36.3114C48.9796 36.3114 51.5413 36.7923 53.3328 37.948L36.1437 42.1073C36.1437 42.1073 36.9218 45.33 39.4798 44.7107C40.3636 44.4966 49.92 42.1842 55.7394 40.7757C56.0949 41.5506 56.3677 42.4283 56.5494 43.4476L36.3551 48.3336C36.3551 48.3336 37.134 51.5567 39.6898 50.9384C40.62 50.7132 51.1799 48.1582 56.8513 46.786C56.8585 47.0736 56.8717 47.3487 56.873 47.6499Z" fill="#9CA3AF"/>
<path fill-rule="evenodd" clip-rule="evenodd" d="M123.044 47.908C121.84 47.9411 120.997 47.9437 120.04 47.908C119.188 47.8776 118.428 47.5442 118.397 45.7215C118.39 45.3251 118.377 41.229 118.377 41.229H115.843C115.843 41.229 115.849 42.1578 115.849 45.2572C115.849 47.9331 116.122 50.3557 119.775 50.3385C120.618 50.3345 122.435 50.3213 122.97 50.3385L123.029 54.1821H125.565V41.229H123.029L123.044 47.908Z" fill="#9CA3AF"/>
<path fill-rule="evenodd" clip-rule="evenodd" d="M138.512 51.0544C138.512 50.1705 138.512 50.5728 138.512 45.4457C138.512 42.9709 137.412 41.7318 135.757 41.323C133.986 40.883 131.53 41.2675 129.377 42.2406L130.229 44.4211C131.996 43.6497 134.484 43.2338 135.29 43.7337C135.889 44.1081 135.972 44.9616 135.972 46.2833C135.972 46.2833 133.85 46.2833 132.64 46.27C130.044 46.2833 128.685 47.1685 128.634 49.8397C128.625 50.3372 128.647 50.7129 128.696 51.3745C128.946 53.7839 130.247 54.2972 132.178 54.2337C133.57 54.1875 135.551 53.8182 136.371 53.5364C136.534 53.7019 136.687 54.2892 138.193 54.2483C138.654 54.2363 138.987 54.247 139.44 54.2363L139.459 51.8733C138.781 51.8998 138.512 51.9409 138.512 51.0544ZM135.977 51.262C135.977 51.262 135.31 51.4976 133.326 51.8363C131.338 52.1764 131.216 51.1325 131.193 50.5702C131.18 49.1915 131.119 48.4928 132.54 48.4176C134.581 48.3991 135.977 48.4057 135.977 48.4057V51.262Z" fill="#9CA3AF"/>
<path fill-rule="evenodd" clip-rule="evenodd" d="M173.898 41.1232H170.773C168.55 41.1232 166.746 42.9265 166.746 45.1513V50.218C166.746 52.4422 168.55 54.2443 170.773 54.2443H173.898C176.121 54.2443 177.924 52.4422 177.924 50.218V45.1513C177.924 42.9265 176.121 41.1232 173.898 41.1232ZM175.456 50.2896C175.456 51.1085 174.788 51.7767 173.968 51.7767H170.679C169.859 51.7767 169.191 51.1085 169.191 50.2896V45.0628C169.191 44.2424 169.859 43.5755 170.679 43.5755H173.968C174.788 43.5755 175.456 44.2424 175.456 45.0628V50.2896Z" fill="#9CA3AF"/>
<path fill-rule="evenodd" clip-rule="evenodd" d="M108.832 41.1232H106.306C104.082 41.1232 102.279 42.9265 102.279 45.1513V46.2091H99.7561V41.2429H97.2222V54.2205H99.7561V48.4545H102.279V50.2181C102.279 52.4424 104.082 54.2444 106.306 54.2444H108.832C111.055 54.2444 112.859 52.4424 112.859 50.2181V45.1514C112.859 42.9265 111.055 41.1232 108.832 41.1232ZM110.39 50.2896C110.39 51.1085 109.723 51.7767 108.903 51.7767H106.212C105.392 51.7767 104.724 51.1085 104.724 50.2896V45.0628C104.724 44.2424 105.392 43.5755 106.212 43.5755H108.903C109.723 43.5755 110.39 44.2424 110.39 45.0628V50.2896Z" fill="#9CA3AF"/>
<path fill-rule="evenodd" clip-rule="evenodd" d="M154.872 43.5411H158.58V54.2059H161.107V43.5411H164.83L165.148 41.2291H154.591L154.872 43.5411Z" fill="#9CA3AF"/>
<path fill-rule="evenodd" clip-rule="evenodd" d="M84.5716 50.0289C84.5345 51.6008 84.0653 52.2332 82.702 52.408C82.702 52.408 82.9077 53.7839 83.0109 54.5023C84.2181 54.5023 85.9686 54.4203 86.7243 51.7622C87.0187 50.7249 86.9298 46.3838 86.9856 43.5392H90.8079L90.8071 43.5881V54.2204H93.3568V41.229H84.5668C84.5668 41.2291 84.6072 48.4571 84.5716 50.0289Z" fill="#9CA3AF"/>
<path fill-rule="evenodd" clip-rule="evenodd" d="M151.245 47.0705C151.809 46.4607 152.096 45.8719 152.105 44.6744C152.096 42.7891 150.238 41.2291 148.122 41.2291H142.948L142.929 54.2444H148.833C151.057 54.2444 152.861 52.4424 152.861 50.2181V49.8398C152.861 49.8397 152.907 47.9503 151.245 47.0705ZM145.477 43.6067H148.302C149.07 43.6252 149.562 44.1239 149.561 44.8755C149.56 45.8003 149.051 46.2832 148.395 46.2832C147.248 46.2832 146.58 46.2832 145.477 46.2832C145.477 45.9234 145.477 43.7865 145.477 43.6067ZM148.904 51.8522H145.477C145.477 50.9009 145.477 48.4214 145.477 48.4214C145.477 48.4214 147.542 48.4253 148.876 48.42C149.575 48.4174 150.454 48.8673 150.436 50.1572C150.419 51.3401 149.724 51.7767 148.904 51.8522Z" fill="#9CA3AF"/>
<path fill-rule="evenodd" clip-rule="evenodd" d="M76.3658 46.5836L80.4839 41.2291H77.696L73.8194 46.1563H72.4354V41.2291H69.9276V54.2205H72.4354L72.4221 48.4161L73.7345 48.436C74.9967 48.4161 75.5996 48.6173 75.9983 49.5659C76.1525 49.7842 77.1712 52.5852 77.8202 54.2205H80.5153C79.3967 51.4249 78.7581 49.505 78.493 48.9349C78.0439 47.9689 77.7134 47.0322 76.3658 46.5836Z" fill="#9CA3AF"/>
<path fill-rule="evenodd" clip-rule="evenodd" d="M45.5021 33.8488C56.0452 33.8488 59.2724 37.0724 59.3166 47.6414C59.2723 58.3796 56.0451 61.6503 45.3964 61.6503C34.8003 61.6503 31.5573 58.3796 31.5138 47.644C31.556 37.2015 34.9294 33.8488 45.4498 33.8488H45.5021ZM45.485 59.2568C54.1949 59.2568 56.8589 56.5484 56.8932 47.6653C56.8588 39.0691 54.0864 36.3125 45.4022 36.3125C36.7479 36.3125 33.9575 39.0691 33.9232 47.6666C33.9456 53.0449 34.9274 55.9041 37.3169 57.5381C39.0575 58.725 41.5501 59.2568 45.4022 59.2568H45.485Z" fill="#9CA3AF"/>
<path fill-rule="evenodd" clip-rule="evenodd" d="M45.5174 32.3947C57.2114 32.3947 60.7898 35.9696 60.8381 47.6936C60.7898 59.6 57.2115 63.2305 45.401 63.2305C33.6478 63.2305 30.0516 59.5999 30.0027 47.6962C30.05 36.1126 33.7915 32.3947 45.4591 32.3947H45.5174ZM45.4995 60.5752C55.158 60.5752 58.1125 57.5718 58.1502 47.7186C58.1125 38.1863 55.0385 35.128 45.4068 35.128C35.8087 35.128 32.7139 38.1863 32.6754 47.7212C32.6999 53.6843 33.7894 56.8572 36.4394 58.6684C38.37 59.9863 41.1352 60.5752 45.4068 60.5752H45.4995Z" fill="#9CA3AF"/>
<path fill-rule="evenodd" clip-rule="evenodd" d="M36.1387 42.1158L55.0223 37.5471C55.9035 38.3091 56.581 39.2665 57.0684 40.4665C51.5042 41.8127 40.4332 44.4919 39.478 44.7222C36.9181 45.3427 36.1387 42.1158 36.1387 42.1158ZM39.6891 50.9586C40.6934 50.7139 52.9248 47.7555 58.1192 46.4984C58.0761 45.2725 57.9775 44.1565 57.8062 43.159L36.3504 48.3496C36.3504 48.3496 37.1298 51.5779 39.6891 50.9586ZM38.1225 54.343C38.1225 54.343 38.9031 57.5687 41.4622 56.9495C42.3552 56.7351 51.9635 54.4211 57.6944 53.0411C57.9048 51.9919 58.0444 50.829 58.1065 49.5086L38.1225 54.343Z" fill="#9CA3AF"/>
<path fill-rule="evenodd" clip-rule="evenodd" d="M36.1852 42.2771L55.8983 38.4501C55.6352 38.1199 55.3395 37.8216 55.0224 37.5471L36.1387 42.1156C36.1387 42.1156 36.1545 42.1771 36.1852 42.2771Z" fill="#9CA3AF"/>
<path fill-rule="evenodd" clip-rule="evenodd" d="M36.1852 42.2769L55.2547 37.744C55.1793 37.6739 55.0965 37.611 55.019 37.5441L36.1387 42.1154C36.1387 42.1154 36.1545 42.1769 36.1852 42.2769Z" fill="#9CA3AF"/>
<path fill-rule="evenodd" clip-rule="evenodd" d="M36.3968 48.5129L57.9704 44.326C57.9253 43.9198 57.8705 43.5328 57.8061 43.1584L36.3504 48.3515C36.3504 48.3515 36.3662 48.4148 36.3968 48.5129Z" fill="#9CA3AF"/>
<path fill-rule="evenodd" clip-rule="evenodd" d="M36.3968 48.5129L57.8421 43.417C57.8288 43.3323 57.8202 43.2409 57.8062 43.1584L36.3504 48.3515C36.3504 48.3515 36.3662 48.4148 36.3968 48.5129Z" fill="#9CA3AF"/>
<path fill-rule="evenodd" clip-rule="evenodd" d="M38.1226 54.3556C38.1226 54.3556 38.1379 54.4191 38.1689 54.5184L58.0234 50.6641C58.0545 50.291 58.0868 49.918 58.1054 49.5197L38.1226 54.3556Z" fill="#9CA3AF"/>
<path fill-rule="evenodd" clip-rule="evenodd" d="M38.1226 54.3556C38.1226 54.3556 38.1379 54.4191 38.1689 54.5184L58.086 49.7843C58.0921 49.693 58.1013 49.6124 58.1053 49.5197L38.1226 54.3556Z" fill="#9CA3AF"/>
<path d="M45.4068 35.1274C55.0383 35.1274 58.1125 38.1856 58.1502 47.7179C58.1125 57.5711 55.1581 60.5745 45.4995 60.5745H45.4068C41.1351 60.5745 38.37 59.9856 36.4394 58.6678C33.7894 56.8565 32.6998 53.6837 32.6754 47.7205C32.7139 38.1856 35.8087 35.1274 45.4068 35.1274ZM45.4068 34.8488C35.7192 34.8488 32.4365 38.0971 32.3967 47.7192C32.4227 53.7817 33.5513 57.0192 36.2952 58.8966C38.2771 60.2487 41.0861 60.8508 45.4066 60.8508H45.4981C55.2478 60.8508 58.3896 57.6608 58.4278 47.7191C58.3898 38.0957 55.1043 34.8488 45.4068 34.8488Z" fill="#9CA3AF"/>
<path fill-rule="evenodd" clip-rule="evenodd" d="M57.8061 43.1585C57.633 42.1549 57.389 41.2579 57.0686 40.466L55.774 40.7788C56.1288 41.5534 56.3787 42.4407 56.5599 43.4601L57.8061 43.1585Z" fill="#9CA3AF"/>
<path fill-rule="evenodd" clip-rule="evenodd" d="M58.1106 49.5189C58.1376 48.946 58.1521 48.3494 58.1547 47.7222C58.1534 47.3001 58.1384 46.9059 58.1244 46.5089C57.7348 46.6029 57.3174 46.7033 56.8755 46.8105C56.8834 47.0949 56.8966 47.3702 56.8974 47.6692C56.8941 48.4405 56.8635 49.1511 56.8185 49.8313L58.1106 49.5189Z" fill="#9CA3AF"/>
<path fill-rule="evenodd" clip-rule="evenodd" d="M54.1981 57.0277H56.1087C56.8628 55.9825 57.3668 54.666 57.6944 53.0412C57.2372 53.151 56.7706 53.2635 56.2786 53.3826C55.8475 54.9385 55.1792 56.1386 54.1981 57.0277Z" fill="#9CA3AF"/>
<path fill-rule="evenodd" clip-rule="evenodd" d="M45.4068 35.1262C35.8087 35.1262 32.7139 38.1838 32.6754 47.7195C32.6999 53.6825 33.7894 56.854 36.4394 58.6667C38.37 59.9845 41.1351 60.5733 45.4068 60.5733H45.4995C55.158 60.5733 58.1125 57.5686 58.1502 47.7155C58.1125 38.1839 55.0384 35.1262 45.4068 35.1262ZM45.4922 60.1895H45.4018C41.2367 60.1895 38.5403 59.6139 36.6581 58.3305C34.0747 56.5643 33.0122 53.4709 32.9879 47.6559C33.0255 38.3585 36.0429 35.3764 45.4018 35.3764C54.7937 35.3764 57.7912 38.3585 57.8276 47.6533C57.7911 57.2603 54.91 60.1895 45.4922 60.1895Z" fill="#9CA3AF"/>
</svg>
