<svg width="208" height="96" viewBox="0 0 208 96" fill="none" xmlns="http://www.w3.org/2000/svg">
<path fill-rule="evenodd" clip-rule="evenodd" d="M96.633 38.0002H92.8464L86.0001 54.6464H89.8754L91.1433 51.2274H98.1288L99.4204 54.6464H103.32L96.633 38.0002ZM92.0762 48.4211L94.5882 41.3472L97.1717 48.4211H92.0762Z" fill="#9CA3AF"/>
<path d="M107.562 38.0002H104.309V40.8769H107.562V38.0002Z" fill="#9CA3AF"/>
<path d="M107.562 42.5501H104.309V54.6465H107.562V42.5501Z" fill="#9CA3AF"/>
<path d="M112.587 44.4838H112.516V42.5501H109.382V54.6466H112.635V48.7516C112.635 46.2051 114.166 45.0969 116.295 45.3089H116.367V42.503C116.176 42.4324 115.96 42.4086 115.602 42.4086C114.166 42.4086 113.329 43.116 112.587 44.4838Z" fill="#9CA3AF"/>
<path d="M122.705 38.0002H125.958V40.8769H122.705V38.0002Z" fill="#9CA3AF"/>
<path d="M122.705 42.5501H125.959V54.6465H122.705V42.5501Z" fill="#9CA3AF"/>
<path d="M131.031 44.2005H130.96V42.5499H127.778V54.6463H131.031V47.7845C131.031 46.1339 132.084 45.0021 133.519 45.0021C134.883 45.0021 135.648 45.9217 135.648 47.2186V54.6463H138.902V46.7471C138.902 44.1061 137.203 42.2198 134.667 42.2198C132.993 42.2198 131.868 42.9036 131.031 44.2005Z" fill="#9CA3AF"/>
<path fill-rule="evenodd" clip-rule="evenodd" d="M140.24 48.5863C140.24 45.0021 142.704 42.2198 146.292 42.2198C150.24 42.2198 152.345 45.1908 152.345 49.5058H143.446C143.685 51.3685 144.737 52.5241 146.58 52.5241C147.847 52.5241 148.589 51.9581 148.948 51.0384H152.153C151.699 53.1842 149.761 55 146.603 55C142.537 54.9999 140.24 52.1937 140.24 48.5863ZM143.493 47.2894H148.948C148.852 45.7566 147.823 44.6954 146.34 44.6954C144.618 44.6954 143.78 45.7094 143.493 47.2894Z" fill="#9CA3AF"/>
<path d="M156.105 50.7318H153.091C153.283 53.3023 155.268 54.9999 158.833 55.0002C161.895 55.0002 164 53.5381 164 51.1094C164 48.2798 161.727 47.7139 159.67 47.2895C159.388 47.2325 159.11 47.1821 158.841 47.1335C157.441 46.8807 156.297 46.6739 156.297 45.8038C156.297 44.9315 157.134 44.4598 158.402 44.4598C159.789 44.4598 160.627 44.9315 160.771 46.2282H163.713C163.474 43.7996 161.679 42.2198 158.45 42.2198C155.651 42.2198 153.45 43.4695 153.45 46.0868C153.45 48.7277 155.603 49.3172 157.804 49.7418C158.015 49.7832 158.223 49.8213 158.427 49.8585C159.845 50.1176 161.034 50.3348 161.034 51.3451C161.034 52.1937 160.22 52.7361 158.785 52.7361C157.325 52.7361 156.321 52.1231 156.105 50.7318Z" fill="#9CA3AF"/>
<path d="M117.633 38.0002H120.887V54.6464H117.633V38.0002Z" fill="#9CA3AF"/>
<path fill-rule="evenodd" clip-rule="evenodd" d="M62.506 68.0002C73.2757 68.0002 82.0001 59.0536 82.0001 48.0045C82.0001 36.9554 73.2759 28.0002 62.506 28.0002C51.7348 28.0002 43.0001 36.9554 43.0001 48.0045C43.0001 59.0536 51.7348 68.0002 62.506 68.0002ZM54.5795 38.2886C56.0219 37.7394 58.0145 37.5653 61.0861 37.5653L63.8569 37.5654L62.5011 41.0426H60.6025C58.5633 41.0426 57.2541 41.0489 56.5475 41.2894C55.86 41.5079 55.352 41.7728 55.075 42.1885C54.819 42.5248 54.7326 42.9838 54.7326 43.3822C54.7326 43.7994 54.7772 44.1944 55.1799 44.7251C55.6767 45.2335 56.4948 45.8903 58.1001 46.903C61.3004 48.9511 62.2471 50.5769 62.2471 52.716C62.2471 56.1972 59.0461 59.5216 53.681 59.5216C52.0683 59.5216 49.8173 59.2793 48.8688 58.969L48.3706 58.8187C48.5649 58.1563 49.202 56.3308 49.4827 55.5591L49.9858 55.6892C51.0403 55.9537 52.6904 56.1093 53.786 56.1093C56.925 56.1093 58.1449 54.6557 58.1449 53.3786C58.1449 52.2118 57.5236 51.5718 54.4091 49.6354C51.4902 47.7848 50.4815 46.1759 50.4815 43.9542C50.4815 41.2868 52.1555 39.2571 54.5795 38.2886ZM65.8938 37.5653H75.4348C75.8833 37.5653 75.9692 37.8904 75.7964 38.2443C75.1726 39.8303 69.2862 54.9569 69.2862 54.9569H65.3513C65.3513 54.9569 70.0007 42.8053 70.7721 40.9953C70.5937 40.9953 70.4293 41.0005 70.2101 41.0075C69.7729 41.0214 69.118 41.0423 67.7004 41.0423H64.5379L65.8938 37.5653Z" fill="#9CA3AF"/>
</svg>
