<svg width="208" height="96" viewBox="0 0 208 96" fill="none" xmlns="http://www.w3.org/2000/svg">
<path d="M53.4817 34.6339C45.7105 34.6339 39.4102 40.7375 39.4102 48.2678C39.4102 55.7968 45.7105 61.9017 53.4817 61.9017C61.2534 61.9017 67.5542 55.7968 67.5542 48.2678C67.5542 40.7375 61.2538 34.6339 53.4817 34.6339ZM53.4817 60.3626C46.5871 60.3626 40.9969 54.9472 40.9969 48.2678C40.9969 41.5871 46.5866 36.1721 53.4817 36.1721C60.3768 36.1721 65.9665 41.5871 65.9665 48.2678C65.9665 54.9472 60.3768 60.3626 53.4817 60.3626Z" fill="#9CA3AF"/>
<path d="M63.7099 53.7585L61.6668 51.4469C61.6416 51.419 61.6118 51.395 61.5774 51.3755C61.473 51.3177 61.3502 51.3164 61.2489 51.3639C60.9369 51.5069 60.5598 51.5042 60.2381 51.3244C59.9517 51.1655 59.7694 50.8973 59.7125 50.6061C59.5687 49.8643 59.1054 49.186 58.3782 48.7798L57.4632 48.2684L62.6652 45.3589L62.0214 44.2779L56.1756 47.5475L55.4732 47.155V46.3688L61.3186 43.0989L60.6748 42.0183L55.4732 44.9283V43.905C55.4732 43.0913 55.0984 42.3628 54.5078 41.8718C54.2754 41.6792 54.1279 41.3924 54.1279 41.0723C54.1279 40.7123 54.3139 40.3936 54.5985 40.2036C54.6915 40.1423 54.7515 40.0384 54.7515 39.9217C54.7515 39.8831 54.7451 39.8458 54.7332 39.8111L53.6889 36.9416C53.6601 36.8577 53.5785 36.7978 53.4827 36.7978C53.3874 36.7978 53.3059 36.8577 53.277 36.9416L52.2332 39.8111C52.2208 39.8458 52.2144 39.8831 52.2144 39.9217C52.2144 40.0384 52.2749 40.1423 52.367 40.2036C52.6511 40.3936 52.838 40.7123 52.838 41.0723C52.838 41.3924 52.691 41.6792 52.4577 41.8718C51.8666 42.3628 51.4927 43.0918 51.4927 43.905V44.9283L46.2907 42.0183L45.6469 43.0989L51.4927 46.3688V47.1555L50.7903 47.5475L44.9445 44.2779L44.3012 45.3589L49.5032 48.2684L48.5877 48.7798C47.8605 49.186 47.3968 49.8643 47.2534 50.6061C47.1966 50.8973 47.0147 51.1655 46.7283 51.3244C46.4062 51.5042 46.0295 51.5069 45.717 51.3639C45.6153 51.3169 45.493 51.3177 45.389 51.3755C45.3541 51.395 45.3239 51.4194 45.2996 51.4469L43.256 53.7576C43.196 53.8237 43.1832 53.9214 43.2308 54.0031C43.2785 54.0825 43.3728 54.1211 43.4617 54.1047L46.5491 53.5445C46.5863 53.5374 46.6234 53.5245 46.6573 53.5054C46.7622 53.4464 46.8236 53.3447 46.8328 53.2355C46.8607 52.9026 47.0523 52.5865 47.3739 52.4067C47.6594 52.2478 47.9897 52.2273 48.2789 52.3255C49.0134 52.5758 49.8514 52.5257 50.5786 52.1181L51.4937 51.6076V57.4266H52.7812V50.8867L53.4841 50.4938L54.1866 50.8867V57.4262H55.4746V51.6072L56.3892 52.1177C57.1163 52.5252 57.9549 52.5754 58.6894 52.325C58.9776 52.2265 59.3084 52.2469 59.5943 52.4062C59.916 52.586 60.1071 52.9021 60.135 53.2351C60.1437 53.3443 60.2056 53.4464 60.3096 53.505C60.3439 53.5241 60.3811 53.5369 60.4182 53.544L63.5051 54.1043C63.5945 54.1207 63.6884 54.0821 63.7365 54.0026C63.7828 53.9214 63.7695 53.8242 63.7099 53.7585ZM51.4923 50.1671L49.7754 51.1269C49.4391 51.3151 49.0097 51.2032 48.8159 50.8778C48.6221 50.5515 48.7371 50.1356 49.0734 49.9473L50.7903 48.9871L51.4927 49.3804L51.4923 50.1671ZM52.7799 43.7284C52.7799 43.3519 53.0942 43.0469 53.4823 43.0469C53.8704 43.0469 54.1852 43.3519 54.1852 43.7284V45.6483L53.4827 46.0408L52.7799 45.6483V43.7284ZM54.2906 48.7199L53.4827 49.1713L52.674 48.7194V47.8151L53.4827 47.3628L54.2906 47.8151V48.7199ZM58.1491 50.8783C57.9548 51.2032 57.5246 51.3151 57.1887 51.1273L55.4723 50.1666V49.3809L56.1747 48.9876L57.8912 49.9478C58.2275 50.136 58.3425 50.5515 58.1491 50.8783Z" fill="#9CA3AF"/>
<path d="M147.176 45.4981H142.48V36.4011H138.189V60.1339H142.48V49.7118H147.176V60.1339H151.56V36.4011H147.176V45.4981Z" fill="#9CA3AF"/>
<path d="M70.6864 36.4011L75.4476 50.9534V60.1339H80.2134V50.482L85.1492 36.4011H81.1386L77.8986 45.6472L74.9656 36.4011H70.6864Z" fill="#9CA3AF"/>
<path d="M112.064 36.4011L110.009 47.6906L107.625 36.4011H100.928V60.1339H104.769V42.2441L108.046 57.7962H111.633L114.54 41.9915V60.1339H119.043V36.4011H112.064Z" fill="#9CA3AF"/>
<path d="M164.632 36.4011H157.998L153.521 60.1339H157.491L158.44 54.6115H163.378L164.299 60.1339H168.674L164.632 36.4011ZM159.121 50.6552L160.947 40.0409L162.718 50.6552H159.121Z" fill="#9CA3AF"/>
<path d="M125.481 36.4011L121.003 60.1339H124.974L125.924 54.6115H130.862L131.783 60.1339H136.157L132.115 36.4011H125.481ZM126.604 50.6552L128.43 40.0409L130.202 50.6552H126.604Z" fill="#9CA3AF"/>
<path d="M88.2188 36.4011L83.7408 60.1339H87.712L88.6624 54.6115H93.6L94.5215 60.1339H98.8941L94.8523 36.4011H88.2188ZM89.3423 50.6552L91.1678 40.0409L92.9393 50.6552H89.3423Z" fill="#9CA3AF"/>
</svg>
