<svg width="48" height="48" viewBox="0 0 48 48" fill="none" xmlns="http://www.w3.org/2000/svg">
<path d="M39.9273 28.0002C41.8706 29.0153 43 30.2276 43 31.5297C43 35.1033 34.4934 38.0002 24 38.0002C13.5066 38.0002 5 35.1033 5 31.5297C5 30.2276 6.12936 29.0153 8.0727 28.0002" stroke="black" stroke-width="2" stroke-linecap="round"/>
<path d="M36 28.7065C32.6574 29.5188 28.5024 30.0002 24 30.0002C19.4976 30.0002 15.3426 29.5188 12 28.7065" stroke="black" stroke-width="2" stroke-linecap="round"/>
<path d="M8 28.0002C9.15027 18.3823 15.8756 11.0002 24 11.0002C32.1244 11.0002 38.8497 18.3823 40 28.0002" stroke="black" stroke-width="2" stroke-linecap="round"/>
<rect x="21" y="10.0002" width="6" height="14" rx="2" fill="#E5E5E5" stroke="black" stroke-width="2" stroke-linecap="round"/>
<rect x="23" y="12.0002" width="2" height="10" rx="1" fill="#1DE9B6"/>
<path d="M31 13.0002L31 20.0002" stroke="black" stroke-width="2" stroke-linecap="round"/>
<path d="M17 13.0002L17 20.0002" stroke="black" stroke-width="2" stroke-linecap="round"/>
</svg>
