<svg width="48" height="48" viewBox="0 0 48 48" fill="none" xmlns="http://www.w3.org/2000/svg">
<path d="M9.85786 38.1424C7.06081 35.3453 5.15599 31.7817 4.38429 27.902C3.61259 24.0224 4.00866 20.0011 5.52241 16.3466C7.03616 12.6921 9.59961 9.56848 12.8886 7.37085C16.1776 5.17322 20.0444 4.00024 24 4.00024" stroke="#00E3AA" stroke-width="2" stroke-linecap="round"/>
<path d="M24 44.0003C27.9556 44.0003 31.8224 42.8273 35.1114 40.6297C38.4004 38.4321 40.9638 35.3085 42.4776 31.654C43.9913 27.9994 44.3874 23.9781 43.6157 20.0985C42.844 16.2189 40.9392 12.6552 38.1421 9.85815" stroke="#00E3AA" stroke-width="2" stroke-linecap="round"/>
<path fill-rule="evenodd" clip-rule="evenodd" d="M30.8045 4.00024L25.0932 20.2295H39L17.1955 43.0002L22.9068 27.0639H9L30.8045 4.00024Z" fill="#212121"/>
</svg>
