<svg width="48" height="48" viewBox="0 0 48 48" fill="none" xmlns="http://www.w3.org/2000/svg">
<path d="M23 5.57759C23.6188 5.22033 24.3812 5.22033 25 5.57759L39.4545 13.9229C40.0733 14.2802 40.4545 14.9404 40.4545 15.6549V32.3455C40.4545 33.0601 40.0733 33.7203 39.4545 34.0776L25 42.4229C24.3812 42.7802 23.6188 42.7802 23 42.4229L8.54552 34.0776C7.92672 33.7203 7.54552 33.0601 7.54552 32.3455V15.6549C7.54552 14.9404 7.92671 14.2802 8.54552 13.9229L23 5.57759Z" stroke="black" stroke-width="2" stroke-linecap="round"/>
<path d="M23 10.5776C23.6188 10.2203 24.3812 10.2203 25 10.5776L35.1244 16.4229C35.7432 16.7802 36.1244 17.4404 36.1244 18.1549V29.8455C36.1244 30.5601 35.7432 31.2203 35.1244 31.5776L25 37.4229C24.3812 37.7802 23.6188 37.7802 23 37.4229L12.8756 31.5776C12.2568 31.2203 11.8756 30.5601 11.8756 29.8455V18.1549C11.8756 17.4404 12.2568 16.7802 12.8756 16.4229L23 10.5776Z" fill="#1DE9B6"/>
<path d="M40 15.5002L24.9804 23.9487C24.3716 24.2912 23.6282 24.2912 23.0194 23.9487L7.99988 15.5002" stroke="black" stroke-width="2" stroke-linecap="round"/>
<path d="M32.5 19.5002L16 10.0002" stroke="black" stroke-width="2" stroke-linecap="round"/>
<path d="M24.0002 42.5003L24.0002 24.8567" stroke="black" stroke-width="2" stroke-linecap="round"/>
</svg>
