<svg width="48" height="48" viewBox="0 0 48 48" fill="none" xmlns="http://www.w3.org/2000/svg">
<g clip-path="url(#clip0_173_18907)">
<path d="M14.0356 41.2586C11.0061 39.5096 8.49034 36.9938 6.74126 33.9643C4.99217 30.9348 4.07135 27.4983 4.07135 24.0001C4.07135 20.502 4.99217 17.0654 6.74125 14.0359C8.49034 11.0064 11.0061 8.49071 14.0356 6.74162" stroke="black" stroke-width="2" stroke-linecap="round"/>
<path d="M17.6386 35.0182C15.7046 33.9016 14.0985 32.2956 12.9819 30.3615C11.8653 28.4275 11.2774 26.2336 11.2774 24.0003C11.2774 21.7671 11.8653 19.5732 12.9819 17.6392C14.0985 15.7051 15.7046 14.0991 17.6386 12.9825" stroke="black" stroke-width="2" stroke-linecap="round"/>
<path d="M33.9643 6.7416C36.9938 8.49068 39.5095 11.0064 41.2586 14.0359C43.0076 17.0654 43.9285 20.5019 43.9285 24.0001C43.9285 27.4983 43.0076 30.9348 41.2586 33.9643C39.5095 36.9938 36.9938 39.5095 33.9643 41.2586" stroke="black" stroke-width="2" stroke-linecap="round"/>
<path d="M30.3613 12.982C32.2954 14.0986 33.9014 15.7047 35.018 17.6387C36.1347 19.5728 36.7225 21.7667 36.7225 23.9999C36.7225 26.2331 36.1347 28.427 35.018 30.3611C33.9014 32.2951 32.2954 33.9012 30.3613 35.0178" stroke="black" stroke-width="2" stroke-linecap="round"/>
<circle cx="24" cy="24.0002" r="6" fill="#E5E5E5" stroke="black" stroke-width="2" stroke-linecap="round"/>
<circle cx="24" cy="24.0002" r="3" fill="#1DE9B6"/>
</g>
<defs>
<clipPath id="clip0_173_18907">
<rect width="48" height="48" fill="white" transform="translate(0 0.000244141)"/>
</clipPath>
</defs>
</svg>
