<svg width="48" height="48" viewBox="0 0 48 48" fill="none" xmlns="http://www.w3.org/2000/svg">
<path d="M34 12.0002H14C12.8954 12.0002 12 12.8957 12 14.0002V34.0002C12 35.1048 12.8954 36.0002 14 36.0002H20.625H34C35.1046 36.0002 36 35.1048 36 34.0002V21.3752V14.0002C36 12.8957 35.1046 12.0002 34 12.0002Z" fill="#1DE9B6"/>
<path d="M19.5 40.0002H10C8.89543 40.0002 8 39.1048 8 38.0002V10.0002C8 8.89567 8.89543 8.00024 10 8.00024H38C39.1046 8.00024 40 8.89567 40 10.0002V20.5002" stroke="black" stroke-width="2" stroke-linecap="round"/>
<rect x="8" y="8.00024" width="32" height="7" rx="2" stroke="black" stroke-width="2" stroke-linecap="round"/>
<path d="M34 5.00024V10.0002" stroke="black" stroke-width="2" stroke-linecap="round"/>
<path d="M14 5.00024V10.0002" stroke="black" stroke-width="2" stroke-linecap="round"/>
<rect x="24" y="31.0002" width="16" height="9" rx="2" stroke="black" stroke-width="2" stroke-linecap="round"/>
<circle cx="32" cy="23.0002" r="5" stroke="black" stroke-width="2" stroke-linecap="round"/>
</svg>
