<svg width="48" height="48" viewBox="0 0 48 48" fill="none" xmlns="http://www.w3.org/2000/svg">
<g clip-path="url(#clip0_1001_7211)">
<path d="M14.0356 41.2584C11.0061 39.5093 8.4904 36.9936 6.74132 33.9641C4.99223 30.9346 4.07142 27.4981 4.07141 23.9999C4.07141 20.5017 4.99223 17.0652 6.74132 14.0357C8.4904 11.0062 11.0061 8.49046 14.0356 6.74138" stroke="black" stroke-width="2" stroke-linecap="round"/>
<path d="M17.6384 35.018C15.7044 33.9014 14.0983 32.2953 12.9817 30.3613C11.8651 28.4272 11.2772 26.2333 11.2772 24.0001C11.2772 21.7669 11.8651 19.573 12.9817 17.6389C14.0983 15.7049 15.7044 14.0988 17.6384 12.9822" stroke="black" stroke-width="2" stroke-linecap="round"/>
<path d="M33.9644 6.74135C36.9939 8.49044 39.5096 11.0062 41.2587 14.0357C43.0078 17.0652 43.9286 20.5017 43.9286 23.9999C43.9286 27.498 43.0078 30.9346 41.2587 33.9641C39.5096 36.9936 36.9939 39.5093 33.9644 41.2584" stroke="black" stroke-width="2" stroke-linecap="round"/>
<path d="M30.3611 12.9818C32.2951 14.0984 33.9012 15.7044 35.0178 17.6385C36.1344 19.5725 36.7223 21.7664 36.7223 23.9997C36.7223 26.2329 36.1344 28.4268 35.0178 30.3608C33.9012 32.2949 32.2951 33.9009 30.3611 35.0175" stroke="black" stroke-width="2" stroke-linecap="round"/>
<circle cx="24" cy="24" r="6" fill="#E5E5E5" stroke="black" stroke-width="2" stroke-linecap="round"/>
<circle cx="24" cy="24" r="3" fill="#1DE9B6"/>
</g>
<defs>
<clipPath id="clip0_1001_7211">
<rect width="48" height="48" fill="white"/>
</clipPath>
</defs>
</svg>
