<svg width="48" height="48" viewBox="0 0 48 48" fill="none" xmlns="http://www.w3.org/2000/svg">
<path d="M34 12H14C12.8954 12 12 12.8954 12 14V34C12 35.1046 12.8954 36 14 36H20.625H34C35.1046 36 36 35.1046 36 34V21.375V14C36 12.8954 35.1046 12 34 12Z" fill="#1DE9B6"/>
<path d="M19.5 40H10C8.89543 40 8 39.1046 8 38V10C8 8.89543 8.89543 8 10 8H38C39.1046 8 40 8.89543 40 10V20.5" stroke="black" stroke-width="2" stroke-linecap="round"/>
<rect x="8" y="8" width="32" height="7" rx="2" stroke="black" stroke-width="2" stroke-linecap="round"/>
<path d="M34 5V10" stroke="black" stroke-width="2" stroke-linecap="round"/>
<path d="M14 5V10" stroke="black" stroke-width="2" stroke-linecap="round"/>
<rect x="24" y="31" width="16" height="9" rx="2" stroke="black" stroke-width="2" stroke-linecap="round"/>
<circle cx="32" cy="23" r="5" stroke="black" stroke-width="2" stroke-linecap="round"/>
</svg>
