<svg width="573" height="349" viewBox="0 0 573 349" fill="none" xmlns="http://www.w3.org/2000/svg">
<g opacity="0.05">
<path d="M273.222 172.986C273.121 166.832 272.442 160.599 271.144 154.349C259.942 100.426 206.861 65.7344 152.584 76.8633L137.372 3.6357C204.711 -10.1714 270.999 16.3237 310.866 66.541C343.024 26.036 392.868 0.0346253 448.825 0.0346253C497.318 0.0346253 541.221 19.5623 573 51.1343L519.782 104.005C501.623 85.9641 476.535 74.8054 448.825 74.8054C394.089 74.8054 349.588 118.344 348.497 172.465C348.515 173.868 348.516 175.27 348.5 176.668C349.661 230.727 394.133 274.194 448.825 274.194C476.535 274.194 501.623 263.036 519.782 244.994L573 297.865C541.221 329.437 497.318 348.965 448.825 348.965C392.855 348.965 343.001 322.952 310.844 282.431C286.122 313.656 250.589 336.706 208.361 345.364C113.376 364.84 20.4845 304.129 0.881273 209.763L74.5892 194.651C85.7911 248.574 138.872 283.266 193.149 272.137C240.057 262.519 272.507 221.826 273.223 176.146C273.218 175.598 273.215 175.049 273.215 174.5C273.215 173.995 273.217 173.49 273.222 172.986Z" fill="white"/>
<path d="M0 143.786C0.83349 139.156 1.85315 134.572 3.05413 130.044C8.47155 109.619 17.5784 90.3393 29.9295 73.1469C32.6676 69.3356 35.5652 65.6269 38.6173 62.031L96.19 110.263C84.8423 123.632 77.2361 139.733 74.1354 156.947L74.1336 156.958L0 143.786Z" fill="white"/>
</g>
</svg>
