<svg width="48" height="48" viewBox="0 0 48 48" fill="none" xmlns="http://www.w3.org/2000/svg">
<circle cx="36.1244" cy="31" r="5" transform="rotate(-60 36.1244 31)" stroke="#212121" stroke-width="2"/>
<circle cx="11.8756" cy="17" r="5" transform="rotate(-60 11.8756 17)" stroke="#212121" stroke-width="2"/>
<circle cx="36.1244" cy="31" r="2" transform="rotate(-60 36.1244 31)" fill="#1DE9B6"/>
<circle cx="11.8756" cy="17" r="2" transform="rotate(-60 11.8756 17)" fill="#1DE9B6"/>
<path d="M32.2273 28.75L16.6388 19.75" stroke="#212121" stroke-width="2"/>
<circle cx="11.8757" cy="30.9998" r="5" transform="rotate(-120 11.8757 30.9998)" stroke="#212121" stroke-width="2"/>
<circle cx="11.8756" cy="30.9999" r="2" transform="rotate(-120 11.8756 30.9999)" fill="#1DE9B6"/>
<path d="M28.5 21.9999L16.6391 28.2496" stroke="#212121" stroke-width="2"/>
<path d="M24 33.5L24 15.5" stroke="#212121" stroke-width="2"/>
<circle cx="23.9999" cy="24" r="5" stroke="#212121" stroke-width="2"/>
<circle cx="24" cy="24" r="5" fill="white" stroke="#212121" stroke-width="2"/>
<circle cx="24" cy="24" r="2" fill="#212121"/>
<circle cx="24" cy="10" r="2" fill="#1DE9B6"/>
<circle cx="24" cy="38" r="2" fill="#1DE9B6"/>
<circle cx="24" cy="10" r="5" stroke="#212121" stroke-width="2"/>
<circle cx="24" cy="38" r="5" stroke="#212121" stroke-width="2"/>
</svg>
