<svg width="32" height="32" viewBox="0 0 32 32" fill="none" xmlns="http://www.w3.org/2000/svg">
<path fill-rule="evenodd" clip-rule="evenodd" d="M16 3.99992C14.5855 3.99992 13.2289 4.56182 12.2288 5.56202C11.2286 6.56221 10.6667 7.91876 10.6667 9.33325V13.3333H21.3333V9.33325C21.3333 7.91876 20.7714 6.56221 19.7712 5.56202C18.771 4.56182 17.4145 3.99992 16 3.99992ZM24 13.3333V9.33325C24 7.21152 23.1571 5.17669 21.6568 3.6764C20.1566 2.17611 18.1217 1.33325 16 1.33325C13.8783 1.33325 11.8434 2.17611 10.3431 3.6764C8.84284 5.17669 7.99999 7.21152 7.99999 9.33325V13.3333H6.66666C5.60579 13.3333 4.58837 13.7547 3.83823 14.5048C3.08808 15.255 2.66666 16.2724 2.66666 17.3333V26.6666C2.66666 27.7275 3.08808 28.7449 3.83823 29.495C4.58837 30.2452 5.60579 30.6666 6.66666 30.6666H25.3333C26.3942 30.6666 27.4116 30.2452 28.1618 29.495C28.9119 28.7449 29.3333 27.7275 29.3333 26.6666V17.3333C29.3333 16.2724 28.9119 15.255 28.1618 14.5048C27.4116 13.7547 26.3942 13.3333 25.3333 13.3333H24ZM6.66666 15.9999C6.31304 15.9999 5.9739 16.1404 5.72385 16.3904C5.4738 16.6405 5.33332 16.9796 5.33332 17.3333V26.6666C5.33332 27.0202 5.4738 27.3593 5.72385 27.6094C5.9739 27.8594 6.31304 27.9999 6.66666 27.9999H25.3333C25.6869 27.9999 26.0261 27.8594 26.2761 27.6094C26.5262 27.3593 26.6667 27.0202 26.6667 26.6666V17.3333C26.6667 16.9796 26.5262 16.6405 26.2761 16.3904C26.0261 16.1404 25.6869 15.9999 25.3333 15.9999H6.66666Z" fill="#00E3AA"/>
</svg>
