<svg width="390" height="240" viewBox="0 0 390 240" fill="none" xmlns="http://www.w3.org/2000/svg">
<g opacity="0.05">
<path d="M185.962 118.959C185.894 114.727 185.432 110.44 184.548 106.143C176.924 69.061 140.795 45.2042 103.853 52.8572L93.4991 2.50019C139.332 -6.99466 184.449 11.2255 211.584 45.7589C233.472 17.9044 267.397 0.0238112 305.483 0.0238112C338.489 0.0238112 368.37 13.4526 390 35.164L353.778 71.5223C341.419 59.1157 324.343 51.4421 305.483 51.4421C268.228 51.4421 237.939 81.383 237.197 118.6C237.209 119.566 237.21 120.529 237.199 121.491C237.989 158.666 268.258 188.558 305.483 188.558C324.343 188.558 341.419 180.884 353.778 168.478L390 204.836C368.37 226.547 338.489 239.976 305.483 239.976C267.388 239.976 233.456 222.087 211.569 194.222C194.743 215.695 170.558 231.546 141.817 237.5C77.1672 250.893 13.9423 209.143 0.599819 144.25L50.7675 133.857C58.3918 170.939 94.5203 194.796 131.463 187.143C163.39 180.529 185.476 152.545 185.963 121.132C185.96 120.755 185.958 120.378 185.958 120C185.958 119.652 185.959 119.306 185.962 118.959Z" fill="white"/>
<path d="M0 98.8789C0.567296 95.6948 1.2613 92.5423 2.07873 89.4285C5.76597 75.3827 11.9644 62.1244 20.3709 50.3016C22.2345 47.6806 24.2066 45.1302 26.284 42.6574L65.4696 75.8255C57.7461 85.0192 52.5691 96.0914 50.4587 107.929L50.4574 107.937L0 98.8789Z" fill="white"/>
</g>
</svg>
